<svg width="223" height="40" viewBox="0 0 223 40" fill="none" xmlns="http://www.w3.org/2000/svg">
<path d="M17.5191 26.5028C14.6108 26.5338 12.0074 25.6677 10.7001 23.0146C9.84102 21.2714 9.77594 19.2802 10.5793 17.5059C10.5916 17.4832 10.5942 17.4566 10.5865 17.432C10.5789 17.4074 10.5615 17.3867 10.5384 17.3747C10.5152 17.3626 10.488 17.36 10.4629 17.3675C10.4378 17.375 10.4168 17.392 10.4045 17.4148C8.80712 19.9074 8.63418 22.9982 9.10278 25.799C10.4007 33.5559 17.6009 38.8166 25.504 38.1474C25.7271 38.1279 25.9162 38.0927 26.0711 38.0416C26.1319 38.021 26.1585 37.979 26.1511 37.9158C26.1412 37.8246 26.1114 37.7396 26.0618 37.6605" stroke="#E6E7EB" stroke-width="2"/>
<path d="M21.8648 20.2882C22.5993 18.5267 20.3363 17.2904 19.0662 18.8112C19.0514 18.8285 19.0408 18.8488 19.0352 18.8707C19.0295 18.8926 19.029 18.9154 19.0337 18.9375C19.0383 18.9596 19.048 18.9804 19.062 18.9983C19.076 19.0162 19.094 19.0308 19.1146 19.0409L21.7384 20.3356C21.7979 20.3648 21.84 20.349 21.8648 20.2882Z" stroke="#808797" stroke-width="2"/>
<path fill-rule="evenodd" clip-rule="evenodd" d="M10.7002 23.0149C12.0075 25.668 14.6109 26.5342 17.5192 26.5032C18.0733 26.5822 18.7161 26.8387 19.4475 27.2727C20.8596 28.109 22.2511 28.977 23.6222 29.8766C24.4553 30.4236 25.0875 30.7445 25.519 30.8393C27.9196 31.3736 30.1343 29.4207 29.8777 27.0466C29.8207 26.5141 29.5498 25.7458 29.0651 24.7417C28.0919 22.725 27.1175 20.7107 26.1419 18.6988C26.1134 18.6405 26.1233 18.5894 26.1717 18.5456C28.9139 15.9807 31.7453 13.5251 34.6661 11.1789C34.7751 11.0914 34.7968 11.0087 34.7311 10.9309C34.7117 10.9086 34.6855 10.8931 34.6564 10.8865C34.6273 10.8799 34.5968 10.8827 34.5694 10.8945L24.764 15.0155C24.702 15.0422 24.6592 15.024 24.6357 14.9607C23.8621 12.7823 22.3844 11.2604 20.2025 10.3948C20.1331 10.3681 20.1108 10.3207 20.1356 10.2526L20.9947 7.87482C21.0232 7.79824 20.9959 7.76055 20.9129 7.76177C7.73054 7.83106 0.0599166 19.5139 3.9036 31.5468C3.91139 31.5716 3.91244 31.5979 3.90661 31.6231C3.90079 31.6483 3.88831 31.6716 3.87042 31.6906C3.85253 31.7097 3.82986 31.7237 3.80468 31.7315C3.7795 31.7392 3.75269 31.7403 3.72694 31.7347C3.72694 31.7347 6.36679 34.9939 12.0224 37.1065C23.7375 41.4828 31.8842 36.1091 31.8842 36.1091C30.1065 37.2008 28.1657 37.718 26.0619 37.6609C26.1115 37.7399 26.1413 37.825 26.1512 37.9162C26.1586 37.9794 26.132 38.0213 26.0712 38.042C25.9163 38.093 25.7272 38.1283 25.5041 38.1477C17.601 38.8169 10.4009 33.5563 9.10289 25.7993C8.63428 22.9985 8.80722 19.9078 10.4046 17.4151C10.4169 17.3924 10.4379 17.3754 10.463 17.3679C10.4881 17.3603 10.5153 17.3629 10.5385 17.375C10.5616 17.3871 10.579 17.4077 10.5866 17.4323C10.5943 17.4569 10.5917 17.4836 10.5794 17.5063C9.77604 19.2805 9.84113 21.2717 10.7002 23.0149ZM19.0663 18.8119C20.3364 17.2911 22.5995 18.5274 21.8649 20.2889C21.8402 20.3496 21.798 20.3655 21.7385 20.3363L19.1147 19.0416C19.0941 19.0315 19.0761 19.0169 19.0621 18.999C19.0481 18.9811 19.0384 18.9603 19.0338 18.9382C19.0291 18.9161 19.0296 18.8933 19.0353 18.8714C19.0409 18.8495 19.0515 18.8292 19.0663 18.8119Z" fill="white"/>
<path d="M26.0619 37.6609C23.6011 37.4068 21.5649 36.3784 19.9533 34.5756C18.0492 32.4458 16.7456 29.3605 17.5192 26.5032C18.0733 26.5822 18.7161 26.8387 19.4475 27.2727C20.8596 28.109 22.2511 28.977 23.6222 29.8766C24.4553 30.4236 25.0875 30.7445 25.519 30.8393C27.9196 31.3736 30.1343 29.4207 29.8777 27.0466C29.8207 26.5141 29.5498 25.7458 29.0651 24.7417C28.0919 22.725 27.1175 20.7107 26.1419 18.6988C26.1134 18.6405 26.1233 18.5894 26.1717 18.5456C28.9139 15.9807 31.7453 13.5251 34.6661 11.1789C34.7751 11.0914 34.7968 11.0087 34.7311 10.9309C34.7117 10.9086 34.6855 10.8931 34.6564 10.8865C34.6273 10.8799 34.5968 10.8827 34.5694 10.8945L24.764 15.0155C24.702 15.0422 24.6592 15.024 24.6357 14.9607C23.8621 12.7823 22.3844 11.2604 20.2025 10.3948C20.1331 10.3681 20.1108 10.3207 20.1356 10.2526L20.9947 7.87482C21.0232 7.79824 20.9959 7.76055 20.9129 7.76177C7.73054 7.83106 0.0599166 19.5139 3.9036 31.5468C3.91139 31.5716 3.91244 31.5979 3.90661 31.6231C3.90079 31.6483 3.88831 31.6716 3.87042 31.6906C3.85253 31.7097 3.82986 31.7237 3.80468 31.7315C3.7795 31.7392 3.75269 31.7403 3.72694 31.7347C3.28065 31.6344 2.41224 30.0753 2.19467 29.6559C-2.0172 21.4869 -0.0442157 11.7168 7.06111 5.79974C14.5476 -0.436463 26.0675 -0.409109 33.3755 6.15166C37.3661 9.73292 39.8542 14.7802 39.9937 20.1412C40.1517 26.3008 37.3531 32.7485 31.8842 36.1091C30.1065 37.2008 28.1657 37.718 26.0619 37.6609Z" fill="#1B314B"/>
<path d="M17.5191 26.5028C16.7455 29.3602 18.0491 32.4455 19.9532 34.5753C21.5648 36.378 23.601 37.4065 26.0618 37.6605C26.3281 37.6605 26.6728 37.6551 27.6884 37.5862C27.6959 37.6494 26.1319 38.021 26.0711 38.0416C25.9162 38.0927 25.7271 38.1279 25.504 38.1474C17.6009 38.8166 10.4007 33.5559 9.10278 25.799C8.63418 22.9982 8.80712 19.9074 10.4045 17.4148C10.4168 17.392 10.4378 17.375 10.4629 17.3675C10.488 17.36 10.5152 17.3626 10.5384 17.3747C10.5615 17.3867 10.5789 17.4074 10.5865 17.432C10.5942 17.4566 10.5916 17.4832 10.5793 17.5059C9.77594 19.2802 9.84102 21.2714 10.7001 23.0146C12.0074 25.6677 14.6108 26.5338 17.5191 26.5028Z" fill="#BCC2CA"/>
<path d="M19.0665 18.8122C20.3365 17.2914 22.5996 18.5277 21.8651 20.2892C21.8403 20.3499 21.7981 20.3657 21.7386 20.3366L19.1148 19.0419C19.0942 19.0318 19.0763 19.0172 19.0623 18.9993C19.0483 18.9814 19.0386 18.9606 19.0339 18.9385C19.0293 18.9164 19.0298 18.8936 19.0354 18.8717C19.041 18.8498 19.0517 18.8294 19.0665 18.8122Z" fill="#1B314B"/>
<path d="M62.384 30V14.096H56.112V10.4H73.192V14.096H66.92V30H62.384ZM83.799 30V27.06L83.519 26.416V21.152C83.519 20.2187 83.2296 19.4907 82.651 18.968C82.091 18.4453 81.223 18.184 80.047 18.184C79.2443 18.184 78.451 18.3147 77.667 18.576C76.9016 18.8187 76.2483 19.1547 75.707 19.584L74.139 16.532C74.9603 15.9533 75.9496 15.5053 77.107 15.188C78.2643 14.8707 79.4403 14.712 80.635 14.712C82.931 14.712 84.7136 15.2533 85.983 16.336C87.2523 17.4187 87.887 19.108 87.887 21.404V30H83.799ZM79.207 30.224C78.031 30.224 77.023 30.028 76.183 29.636C75.343 29.2253 74.699 28.6747 74.251 27.984C73.803 27.2933 73.579 26.5187 73.579 25.66C73.579 24.764 73.7936 23.98 74.223 23.308C74.671 22.636 75.371 22.1133 76.323 21.74C77.275 21.348 78.5163 21.152 80.047 21.152H84.051V23.7H80.523C79.4963 23.7 78.787 23.868 78.395 24.204C78.0216 24.54 77.835 24.96 77.835 25.464C77.835 26.024 78.0496 26.472 78.479 26.808C78.927 27.1253 79.5336 27.284 80.299 27.284C81.027 27.284 81.6803 27.116 82.259 26.78C82.8376 26.4253 83.2576 25.912 83.519 25.24L84.191 27.256C83.8736 28.2267 83.295 28.964 82.455 29.468C81.615 29.972 80.5323 30.224 79.207 30.224ZM99.0336 35.656C97.6149 35.656 96.2429 35.4787 94.9176 35.124C93.6109 34.788 92.5189 34.2747 91.6416 33.584L93.3776 30.448C94.0123 30.9707 94.8149 31.3813 95.7856 31.68C96.7749 31.9973 97.7456 32.156 98.6976 32.156C100.247 32.156 101.367 31.8107 102.058 31.12C102.767 30.4293 103.122 29.4027 103.122 28.04V25.772L103.402 21.992L103.346 18.184V14.936H107.49V27.48C107.49 30.28 106.762 32.3427 105.306 33.668C103.85 34.9933 101.759 35.656 99.0336 35.656ZM98.3616 29.272C96.9616 29.272 95.6923 28.9733 94.5536 28.376C93.4336 27.76 92.5283 26.9107 91.8376 25.828C91.1656 24.7267 90.8296 23.448 90.8296 21.992C90.8296 20.5173 91.1656 19.2387 91.8376 18.156C92.5283 17.0547 93.4336 16.2053 94.5536 15.608C95.6923 15.0107 96.9616 14.712 98.3616 14.712C99.6309 14.712 100.751 14.9733 101.722 15.496C102.692 16 103.448 16.7933 103.99 17.876C104.531 18.94 104.802 20.312 104.802 21.992C104.802 23.6533 104.531 25.0253 103.99 26.108C103.448 27.172 102.692 27.9653 101.722 28.488C100.751 29.0107 99.6309 29.272 98.3616 29.272ZM99.2296 25.688C99.9949 25.688 100.676 25.5387 101.274 25.24C101.871 24.9227 102.338 24.484 102.674 23.924C103.01 23.364 103.178 22.72 103.178 21.992C103.178 21.2453 103.01 20.6013 102.674 20.06C102.338 19.5 101.871 19.0707 101.274 18.772C100.676 18.4547 99.9949 18.296 99.2296 18.296C98.4643 18.296 97.7829 18.4547 97.1856 18.772C96.5883 19.0707 96.1123 19.5 95.7576 20.06C95.4216 20.6013 95.2536 21.2453 95.2536 21.992C95.2536 22.72 95.4216 23.364 95.7576 23.924C96.1123 24.484 96.5883 24.9227 97.1856 25.24C97.7829 25.5387 98.4643 25.688 99.2296 25.688ZM120.795 30V27.06L120.515 26.416V21.152C120.515 20.2187 120.226 19.4907 119.647 18.968C119.087 18.4453 118.219 18.184 117.043 18.184C116.24 18.184 115.447 18.3147 114.663 18.576C113.898 18.8187 113.244 19.1547 112.703 19.584L111.135 16.532C111.956 15.9533 112.946 15.5053 114.103 15.188C115.26 14.8707 116.436 14.712 117.631 14.712C119.927 14.712 121.71 15.2533 122.979 16.336C124.248 17.4187 124.883 19.108 124.883 21.404V30H120.795ZM116.203 30.224C115.027 30.224 114.019 30.028 113.179 29.636C112.339 29.2253 111.695 28.6747 111.247 27.984C110.799 27.2933 110.575 26.5187 110.575 25.66C110.575 24.764 110.79 23.98 111.219 23.308C111.667 22.636 112.367 22.1133 113.319 21.74C114.271 21.348 115.512 21.152 117.043 21.152H121.047V23.7H117.519C116.492 23.7 115.783 23.868 115.391 24.204C115.018 24.54 114.831 24.96 114.831 25.464C114.831 26.024 115.046 26.472 115.475 26.808C115.923 27.1253 116.53 27.284 117.295 27.284C118.023 27.284 118.676 27.116 119.255 26.78C119.834 26.4253 120.254 25.912 120.515 25.24L121.187 27.256C120.87 28.2267 120.291 28.964 119.451 29.468C118.611 29.972 117.528 30.224 116.203 30.224ZM137.992 14.712C139.187 14.712 140.251 14.9547 141.184 15.44C142.136 15.9067 142.883 16.6347 143.424 17.624C143.966 18.5947 144.236 19.8453 144.236 21.376V30H139.868V22.048C139.868 20.8347 139.598 19.9387 139.056 19.36C138.534 18.7813 137.787 18.492 136.816 18.492C136.126 18.492 135.5 18.6413 134.94 18.94C134.399 19.22 133.97 19.6587 133.652 20.256C133.354 20.8533 133.204 21.6187 133.204 22.552V30H128.836V14.936H133.008V19.108L132.224 17.848C132.766 16.84 133.54 16.0653 134.548 15.524C135.556 14.9827 136.704 14.712 137.992 14.712ZM148.196 30V14.936H152.368V19.192L151.78 17.96C152.228 16.896 152.946 16.0933 153.936 15.552C154.925 14.992 156.129 14.712 157.548 14.712V18.744C157.361 18.7253 157.193 18.716 157.044 18.716C156.894 18.6973 156.736 18.688 156.568 18.688C155.373 18.688 154.402 19.0333 153.656 19.724C152.928 20.396 152.564 21.4507 152.564 22.888V30H148.196ZM167.204 30.224C165.598 30.224 164.17 29.888 162.92 29.216C161.688 28.544 160.708 27.6293 159.98 26.472C159.27 25.296 158.916 23.9613 158.916 22.468C158.916 20.956 159.27 19.6213 159.98 18.464C160.708 17.288 161.688 16.3733 162.92 15.72C164.17 15.048 165.598 14.712 167.204 14.712C168.79 14.712 170.209 15.048 171.46 15.72C172.71 16.3733 173.69 17.2787 174.4 18.436C175.109 19.5933 175.464 20.9373 175.464 22.468C175.464 23.9613 175.109 25.296 174.4 26.472C173.69 27.6293 172.71 28.544 171.46 29.216C170.209 29.888 168.79 30.224 167.204 30.224ZM167.204 26.64C167.932 26.64 168.585 26.472 169.164 26.136C169.742 25.8 170.2 25.324 170.536 24.708C170.872 24.0733 171.04 23.3267 171.04 22.468C171.04 21.5907 170.872 20.844 170.536 20.228C170.2 19.612 169.742 19.136 169.164 18.8C168.585 18.464 167.932 18.296 167.204 18.296C166.476 18.296 165.822 18.464 165.244 18.8C164.665 19.136 164.198 19.612 163.844 20.228C163.508 20.844 163.34 21.5907 163.34 22.468C163.34 23.3267 163.508 24.0733 163.844 24.708C164.198 25.324 164.665 25.8 165.244 26.136C165.822 26.472 166.476 26.64 167.204 26.64ZM185.467 35.656C184.049 35.656 182.677 35.4787 181.351 35.124C180.045 34.788 178.953 34.2747 178.075 33.584L179.811 30.448C180.446 30.9707 181.249 31.3813 182.219 31.68C183.209 31.9973 184.179 32.156 185.131 32.156C186.681 32.156 187.801 31.8107 188.491 31.12C189.201 30.4293 189.555 29.4027 189.555 28.04V25.772L189.835 21.992L189.779 18.184V14.936H193.923V27.48C193.923 30.28 193.195 32.3427 191.739 33.668C190.283 34.9933 188.193 35.656 185.467 35.656ZM184.795 29.272C183.395 29.272 182.126 28.9733 180.987 28.376C179.867 27.76 178.962 26.9107 178.271 25.828C177.599 24.7267 177.263 23.448 177.263 21.992C177.263 20.5173 177.599 19.2387 178.271 18.156C178.962 17.0547 179.867 16.2053 180.987 15.608C182.126 15.0107 183.395 14.712 184.795 14.712C186.065 14.712 187.185 14.9733 188.155 15.496C189.126 16 189.882 16.7933 190.423 17.876C190.965 18.94 191.235 20.312 191.235 21.992C191.235 23.6533 190.965 25.0253 190.423 26.108C189.882 27.172 189.126 27.9653 188.155 28.488C187.185 29.0107 186.065 29.272 184.795 29.272ZM185.663 25.688C186.429 25.688 187.11 25.5387 187.707 25.24C188.305 24.9227 188.771 24.484 189.107 23.924C189.443 23.364 189.611 22.72 189.611 21.992C189.611 21.2453 189.443 20.6013 189.107 20.06C188.771 19.5 188.305 19.0707 187.707 18.772C187.11 18.4547 186.429 18.296 185.663 18.296C184.898 18.296 184.217 18.4547 183.619 18.772C183.022 19.0707 182.546 19.5 182.191 20.06C181.855 20.6013 181.687 21.2453 181.687 21.992C181.687 22.72 181.855 23.364 182.191 23.924C182.546 24.484 183.022 24.9227 183.619 25.24C184.217 25.5387 184.898 25.688 185.663 25.688ZM201.601 26.92L201.713 21.6L208.741 14.936H213.949L207.201 21.796L204.933 23.644L201.601 26.92ZM197.989 30V9.224H202.357V30H197.989ZM209.217 30L204.121 23.672L206.865 20.284L214.509 30H209.217ZM216.473 30V14.936H220.841V30H216.473ZM218.657 12.836C217.854 12.836 217.201 12.6027 216.697 12.136C216.193 11.6693 215.941 11.0907 215.941 10.4C215.941 9.70933 216.193 9.13067 216.697 8.664C217.201 8.19733 217.854 7.964 218.657 7.964C219.46 7.964 220.113 8.188 220.617 8.636C221.121 9.06533 221.373 9.62533 221.373 10.316C221.373 11.044 221.121 11.6507 220.617 12.136C220.132 12.6027 219.478 12.836 218.657 12.836Z" fill="#1B314B"/>
</svg>
