<svg width="40" height="40" viewBox="0 0 40 40" fill="none" xmlns="http://www.w3.org/2000/svg">
<path d="M19.0096 0.0226901C23.5586 -0.196959 28.1682 1.18452 31.8337 3.88823C35.6221 6.65263 38.3738 10.7956 39.4467 15.3606C40.4516 19.4877 40.0771 23.9269 38.4099 27.8329C36.6415 32.0423 33.3693 35.5914 29.3221 37.7084C24.0603 40.5046 17.542 40.7561 12.0763 38.3847C7.33789 36.3775 3.45985 32.4527 1.50348 27.697C0.526021 25.2939 -0.0595879 22.6971 0.00692582 20.0946C-0.0942907 16.5412 0.919319 12.9936 2.69205 9.92569C5.05474 5.83761 8.92844 2.63247 13.4094 1.12238C15.2111 0.490889 17.1053 0.138295 19.0096 0.0226901ZM14.7195 1.41428C10.1488 2.71628 6.09582 5.75235 3.59288 9.79419C1.12898 13.7161 0.141399 18.5455 0.914982 23.1148C1.55554 27.1219 3.5307 30.8791 6.39947 33.7417C7.1022 33.0105 7.91193 32.379 8.8171 31.9181C9.36511 31.6132 9.9753 31.4528 10.545 31.1941C12.3828 30.3198 14.2972 29.58 16.2898 29.1421C16.9853 28.9427 17.7126 28.8054 18.3459 28.4412C19.0559 28.0236 19.8034 27.6176 20.3124 26.9499C21.1641 26.0078 21.4735 24.7477 22.0837 23.6624C22.5536 22.7781 22.6303 21.7636 22.8385 20.7998C21.4316 21.6538 20.0955 22.6755 19.0964 23.9962C18.5715 24.6422 17.9208 25.3011 17.0576 25.4254C16.0425 25.5453 14.932 25.4283 14.0818 24.8199C13.4297 24.2968 13.5656 23.3431 13.674 22.6133C14.089 20.6755 14.5879 18.742 14.7412 16.7608C14.7325 15.2955 15.0332 13.8447 15.5335 12.4719C15.1605 12.2204 14.7831 11.9748 14.3898 11.7537C13.6177 11.2234 12.8311 10.7118 12.0054 10.2682C11.3518 9.9228 10.639 9.71326 9.9782 9.38957C9.97241 9.28408 9.96084 9.07455 9.95506 8.9705C10.493 8.87368 11.0395 8.88525 11.5803 8.95172C12.685 8.99362 13.7912 8.93727 14.8959 8.99363L14.9074 9.0601C15.522 9.20171 16.1293 9.37512 16.7395 9.53697C17.166 8.563 17.5449 7.56446 17.8138 6.53413C18.103 5.50669 18.5628 4.47203 19.3928 3.7654C19.7543 3.46338 20.2632 3.23506 20.7332 3.40558C21.2566 3.56309 21.4822 4.14256 21.5255 4.63966C21.5689 5.43878 21.2465 6.19599 20.8864 6.89106C22.3136 6.05293 23.9866 5.88385 25.5959 5.66854C28.952 5.47779 32.4295 6.24657 35.2259 8.16127C32.9457 5.13387 29.685 2.87957 26.0991 1.67439C22.4452 0.448983 18.4254 0.353609 14.7195 1.41428ZM19.5793 4.09487C18.6438 4.95179 18.2548 6.20321 17.9555 7.39683C17.6735 8.16561 17.4277 8.95316 17.0677 9.69159C17.4928 9.99505 17.8572 9.57454 18.0538 9.21616C18.4905 8.47196 19.1903 7.94451 19.8829 7.45464C20.3804 7.15551 20.5712 6.5717 20.8604 6.09772C21.1583 5.41855 21.4012 4.50671 20.8373 3.89545C20.4671 3.50529 19.9017 3.78996 19.5793 4.09487ZM21.1135 7.21476C20.2531 7.6266 19.4636 8.17861 18.7985 8.86502C19.2858 8.66415 19.7441 8.39248 20.2517 8.2393C22.2991 7.68007 24.4695 7.19886 26.5835 7.68729C27.4496 7.9185 28.3519 7.98931 29.2151 8.23497C30.2287 8.59334 31.2626 8.92715 32.1967 9.46905C33.2508 10.1164 34.0547 11.0817 34.8066 12.0456C35.5108 13.0253 36.3104 13.9357 36.9524 14.9603C37.8633 16.1712 38.4996 17.5513 39.2702 18.8475C39.0924 15.5715 38.0181 12.3606 36.254 9.5991C35.8419 8.93727 35.1001 8.61357 34.4914 8.1685C32.7881 6.97488 30.729 6.47778 28.7119 6.1194C27.681 5.959 26.6326 6.00524 25.5945 6.02114C24.0646 6.235 22.4683 6.40986 21.1135 7.21476ZM20.3283 8.6049C18.6177 9.27975 16.9751 10.4199 16.1336 12.1019C15.4063 13.5412 15.081 15.1727 15.1185 16.7811C14.9884 18.1033 14.718 19.4067 14.4737 20.7116C14.2669 21.7752 13.8519 22.833 13.9791 23.9312C14.0182 24.4384 14.5127 24.6957 14.9306 24.8618C15.8169 25.1523 16.8768 25.3474 17.701 24.7824C18.6626 24.2592 19.1007 23.1913 19.9336 22.5208C20.8431 21.6177 21.9102 20.8966 23.0322 20.2839C23.7856 19.5917 24.6271 18.9458 25.1231 18.0281C25.5901 17.125 25.58 16.0499 25.259 15.1019C25.1158 14.7724 24.8397 14.4646 24.9626 14.0802C25.7362 14.6944 25.8432 15.7652 25.8345 16.6828C25.8287 18.005 24.9872 19.151 23.9779 19.9284C24.6315 19.9327 25.2879 20.1018 25.8446 20.4501C26.7946 21.0209 27.6434 21.911 27.8371 23.0382C28.0931 23.9659 27.7055 24.8835 27.5089 25.7809C27.2833 26.6393 26.689 27.3199 26.0384 27.8936C26.5806 27.8733 27.2457 27.8589 27.6072 28.3415C28.3287 29.5294 28.3692 30.9658 28.5066 32.3097C28.4227 32.2952 28.2579 32.2649 28.174 32.2504C27.9759 31.0005 27.9991 29.6406 27.2906 28.5395C26.8669 28.1595 26.2148 28.1479 25.6783 28.2202C25.0522 28.658 24.6025 29.2967 23.9591 29.7115C21.6745 31.5351 19.0674 32.9339 16.3245 33.9339C14.4491 34.7273 12.4898 35.3429 10.4713 35.6449C9.9059 35.7417 9.33186 35.6911 8.76215 35.7012C11.8767 37.9512 15.6883 39.2272 19.5287 39.3139C25.5771 39.4873 31.6284 36.603 35.2809 31.7779C37.7115 28.6464 39.1126 24.7549 39.3122 20.8012C39.5074 19.9573 38.9825 19.229 38.6152 18.5209C37.6262 16.5585 36.4102 14.7103 35.0322 13.0008C34.0822 11.7002 33.0758 10.3448 31.6139 9.5861C30.7044 9.13669 29.7385 8.81444 28.7799 8.49797C27.4727 8.29133 26.1974 7.91272 24.8744 7.8159C23.3272 7.81157 21.8176 8.22485 20.3283 8.6049ZM10.6202 9.26241C11.3331 9.56876 12.0589 9.85054 12.7284 10.2465C12.8759 9.93291 13.0378 9.62801 13.2099 9.32888C12.3467 9.30142 11.4849 9.22628 10.6202 9.26241ZM13.6697 9.35634C13.3183 9.57743 13.1116 9.97771 13.0176 10.3722C13.2446 10.5745 13.5034 10.7335 13.755 10.9054C13.9459 10.3245 14.2683 9.80286 14.6674 9.34188C14.3348 9.34044 14.0008 9.31732 13.6697 9.35634ZM15.0217 9.44737C14.5503 9.89245 14.1874 10.4372 14.0167 11.0673C14.2322 11.1988 14.4433 11.3375 14.653 11.4806C14.9812 10.7942 15.4714 10.2089 16.0411 9.71037C15.7013 9.62512 15.3615 9.53697 15.0217 9.44737ZM14.9147 11.615C15.172 11.7913 15.4265 11.9719 15.6781 12.1554C16.0743 11.3924 16.5876 10.7046 17.1516 10.0601C16.8884 9.98494 16.6281 9.88667 16.3548 9.84766C15.7345 10.3014 15.2458 10.9213 14.9147 11.615ZM23.119 21.1003C22.9614 21.9963 22.8746 22.9269 22.4582 23.752C21.8162 24.898 21.4836 26.2274 20.5785 27.2173C19.9972 27.9644 19.1426 28.4051 18.343 28.8748C17.6851 29.1956 16.952 29.3198 16.2536 29.5222C14.225 29.9701 12.3033 30.7808 10.4235 31.6493C9.01808 32.1189 7.69938 32.8891 6.70023 33.9946C7.21065 34.4397 7.67624 34.9585 8.27342 35.2879C10.1604 35.5322 12.0343 35.0177 13.8259 34.4729C14.5069 34.2764 15.146 33.9672 15.8068 33.7128C19.2814 32.5076 22.5435 30.6262 25.2272 28.1031C25.8056 27.5251 26.5271 27.0497 26.89 26.2924C27.2414 25.6638 27.2949 24.9355 27.4713 24.2506C27.7663 23.1307 27.1662 21.9645 26.3116 21.2564C25.6046 20.6668 24.6821 20.1495 23.7306 20.359C23.3706 20.4168 23.1609 20.7622 23.119 21.1003Z" fill="#1B314B"/>
<path d="M19.6415 15.4198C20.042 14.8736 20.1765 14.1987 20.4584 13.5947C20.5597 13.7233 20.658 13.8548 20.7549 13.9878C20.9934 13.862 21.2393 13.7508 21.4952 13.6597C21.4547 14.3967 20.4093 14.1438 20.3052 14.849C20.6551 14.7565 21.0079 14.6077 21.3766 14.7016C20.9718 15.1438 20.3066 15.1091 19.8699 15.5065C20.2011 15.5397 20.5336 15.5499 20.8633 15.5947C20.5698 15.9212 20.1418 15.9184 19.7413 15.8793C19.6155 16.0108 19.4882 16.1409 19.3595 16.2681C19.627 16.2681 19.8945 16.2926 20.1577 16.3418C19.9567 16.7839 19.4477 16.5773 19.0819 16.5383C18.7595 16.7175 18.3907 17.2507 18.0104 16.9371C18.57 16.4501 19.2467 16.0715 19.6415 15.4198Z" fill="#1B314B"/>
<path d="M15.1446 22.7838C15.5003 22.7376 15.9847 22.6697 16.1553 23.0801C15.8372 23.1046 15.5176 23.1003 15.1981 23.1162C15.36 23.4413 15.5682 23.7405 15.7345 24.0627C15.1041 24.1884 14.572 23.1624 15.1446 22.7838Z" fill="#1B314B"/>
<path d="M19.5793 4.09487C19.9017 3.78996 20.4671 3.50529 20.8373 3.89545C21.4012 4.50671 21.1583 5.41855 20.8604 6.09772C20.5712 6.5717 20.3804 7.15551 19.8829 7.45464C19.1903 7.94451 18.4905 8.47196 18.0538 9.21616C17.8572 9.57454 17.4928 9.99505 17.0677 9.69159C17.4277 8.95316 17.6735 8.16561 17.9555 7.39683C18.2548 6.20321 18.6438 4.95179 19.5793 4.09487Z" fill="#FBC7FF"/>
<path d="M20.3283 8.6049C21.8176 8.22485 23.3272 7.81157 24.8744 7.8159C26.1974 7.91272 27.4727 8.29133 28.7799 8.49797C29.7385 8.81444 30.7044 9.13669 31.6139 9.5861C33.0758 10.3448 34.0822 11.7002 35.0322 13.0008C36.4102 14.7103 37.6262 16.5585 38.6152 18.5209C38.9825 19.229 39.5074 19.9573 39.3122 20.8012C39.1126 24.7549 37.7115 28.6464 35.2809 31.7779C31.6284 36.603 25.5771 39.4873 19.5287 39.3139C15.6883 39.2272 11.8767 37.9512 8.76215 35.7012C9.33186 35.6911 9.9059 35.7417 10.4713 35.6449C12.4898 35.3429 14.4491 34.7273 16.3245 33.9339C19.0674 32.9339 21.6745 31.5351 23.9591 29.7115C24.6025 29.2967 25.0522 28.658 25.6783 28.2202C26.2148 28.1479 26.8669 28.1595 27.2906 28.5395C27.9991 29.6406 27.9759 31.0005 28.174 32.2504C28.2579 32.2649 28.4227 32.2952 28.5066 32.3097C28.3692 30.9658 28.3287 29.5294 27.6072 28.3415C27.2457 27.8589 26.5806 27.8733 26.0384 27.8936C26.689 27.3199 27.2833 26.6393 27.5089 25.7809C27.7055 24.8835 28.0931 23.9659 27.8371 23.0382C27.6434 21.911 26.7946 21.0209 25.8446 20.4501C25.2879 20.1018 24.6315 19.9327 23.9779 19.9284C24.9872 19.151 25.8287 18.005 25.8345 16.6828C25.8432 15.7652 25.7362 14.6944 24.9626 14.0802C24.8397 14.4646 25.1158 14.7724 25.259 15.1019C25.58 16.0499 25.5901 17.125 25.1231 18.0281C24.6271 18.9458 23.7856 19.5917 23.0322 20.2839C21.9102 20.8966 20.8431 21.6177 19.9336 22.5208C19.1007 23.1913 18.6626 24.2592 17.701 24.7824C16.8768 25.3474 15.8169 25.1523 14.9306 24.8618C14.5127 24.6957 14.0182 24.4384 13.9791 23.9312C13.8519 22.833 14.2669 21.7752 14.4737 20.7116C14.718 19.4067 14.9884 18.1033 15.1185 16.7811C15.081 15.1727 15.4063 13.5412 16.1336 12.1019C16.9751 10.4199 18.6177 9.27975 20.3283 8.6049ZM19.6415 15.4198C19.2467 16.0715 18.57 16.4501 18.0104 16.9371C18.3907 17.2507 18.7595 16.7175 19.0819 16.5383C19.4477 16.5773 19.9567 16.7839 20.1577 16.3418C19.8945 16.2926 19.627 16.2681 19.3595 16.2681C19.4882 16.1409 19.6155 16.0108 19.7413 15.8793C20.1418 15.9184 20.5698 15.9212 20.8633 15.5947C20.5336 15.5499 20.2011 15.5397 19.8699 15.5065C20.3066 15.1091 20.9718 15.1438 21.3766 14.7016C21.0079 14.6077 20.6551 14.7565 20.3052 14.849C20.4093 14.1438 21.4547 14.3967 21.4952 13.6597C21.2393 13.7508 20.9934 13.862 20.7549 13.9878C20.658 13.8548 20.5597 13.7233 20.4584 13.5947C20.1765 14.1987 20.042 14.8736 19.6415 15.4198ZM15.1446 22.7838C14.572 23.1624 15.1041 24.1884 15.7345 24.0627C15.5682 23.7405 15.36 23.4413 15.1981 23.1162C15.5176 23.1003 15.8372 23.1046 16.1553 23.0801C15.9847 22.6697 15.5003 22.7376 15.1446 22.7838Z" fill="#FBC7FF"/>
<path d="M8.18522 7.59914C8.69853 6.72632 9.64129 6.20899 10.5985 5.96333C11.4574 5.696 12.3568 6.01536 13.1231 6.40697C14.0992 6.90118 14.7831 7.90694 14.8959 8.99363C13.7912 8.93727 12.685 8.99362 11.5803 8.95172C11.0395 8.88525 10.493 8.87368 9.95506 8.9705C9.96084 9.07455 9.97241 9.28408 9.9782 9.38957C10.639 9.71326 11.3518 9.9228 12.0054 10.2682C12.8311 10.7118 13.6177 11.2234 14.3898 11.7537C13.5598 12.8042 12.2136 13.5123 10.8573 13.3505C9.76853 13.1294 8.6725 12.5586 8.1187 11.5572C7.36536 10.3737 7.40007 8.75952 8.18522 7.59914Z" fill="#C2CDFF"/>
<path d="M4.71494 16.2782C5.16463 15.9921 5.73144 16.0975 6.23608 16.0874C6.91278 16.0484 7.42465 16.5831 7.80493 17.0744C8.13461 17.4805 8.06231 18.0238 8.07099 18.5108C8.14329 19.3677 7.48682 20.1105 6.73782 20.4371C5.77337 20.8792 4.53709 20.5267 3.9428 19.6437C3.14608 18.5888 3.53071 16.8808 4.71494 16.2782Z" fill="#C2CDFF"/>
<path d="M7.32632 24.5266C8.05364 24.0873 9.12075 24.5208 9.34487 25.3401C9.7078 26.1725 8.97904 27.1653 8.11003 27.2361C7.30319 27.3127 6.49056 26.5612 6.57587 25.7375C6.5484 25.226 6.90989 24.7809 7.32632 24.5266Z" fill="#C2CDFF"/>
<path d="M21.1135 7.21476C22.4683 6.40986 24.0646 6.235 25.5945 6.02114C26.6326 6.00524 27.681 5.959 28.7119 6.1194C30.729 6.47778 32.7881 6.97488 34.4914 8.1685C35.1001 8.61357 35.8419 8.93727 36.254 9.5991C38.0181 12.3606 39.0924 15.5715 39.2702 18.8475C38.4996 17.5513 37.8633 16.1712 36.9524 14.9603C36.3104 13.9357 35.5108 13.0253 34.8066 12.0456C34.0547 11.0817 33.2508 10.1164 32.1967 9.46905C31.2626 8.92715 30.2287 8.59334 29.2151 8.23497C28.3519 7.98931 27.4496 7.9185 26.5835 7.68729C24.4695 7.19886 22.2991 7.68007 20.2517 8.2393C19.7441 8.39248 19.2858 8.66415 18.7985 8.86502C19.4636 8.17861 20.2531 7.6266 21.1135 7.21476Z" fill="#C8A2FF"/>
<path d="M23.119 21.1003C23.1609 20.7622 23.3706 20.4168 23.7306 20.359C24.6821 20.1495 25.6046 20.6668 26.3116 21.2564C27.1662 21.9645 27.7663 23.1307 27.4713 24.2506C27.2949 24.9355 27.2414 25.6638 26.89 26.2924C26.5271 27.0497 25.8056 27.5251 25.2272 28.1031C22.5435 30.6262 19.2814 32.5076 15.8068 33.7128C15.146 33.9672 14.5069 34.2764 13.8259 34.4729C12.0343 35.0177 10.1604 35.5322 8.27342 35.2879C7.67624 34.9585 7.21065 34.4397 6.70023 33.9946C7.69938 32.8891 9.01808 32.1189 10.4235 31.6493C12.3033 30.7808 14.225 29.9701 16.2536 29.5222C16.952 29.3198 17.6851 29.1956 18.343 28.8748C19.1426 28.4051 19.9972 27.9644 20.5785 27.2173C21.4836 26.2274 21.8162 24.898 22.4582 23.752C22.8746 22.9269 22.9614 21.9963 23.119 21.1003Z" fill="#C8A2FF"/>
<path d="M14.9147 11.615C15.172 11.7913 15.4265 11.9719 15.6781 12.1554C16.0743 11.3924 16.5876 10.7046 17.1516 10.0601C16.8884 9.98494 16.6281 9.88667 16.3548 9.84766C15.7345 10.3014 15.2458 10.9213 14.9147 11.615Z" fill="#FBE39C"/>
<path d="M15.0217 9.44737C14.5503 9.89245 14.1874 10.4372 14.0167 11.0673C14.2322 11.1988 14.4433 11.3375 14.653 11.4806C14.9812 10.7942 15.4714 10.2089 16.0411 9.71037C15.7013 9.62512 15.3615 9.53697 15.0217 9.44737Z" fill="#FBE39C"/>
<path d="M13.6697 9.35634C13.3183 9.57743 13.1116 9.97771 13.0176 10.3722C13.2446 10.5745 13.5034 10.7335 13.755 10.9054C13.9459 10.3245 14.2683 9.80286 14.6674 9.34188C14.3348 9.34044 14.0008 9.31732 13.6697 9.35634Z" fill="#FBE39C"/>
<path d="M10.6202 9.26241C11.3331 9.56876 12.0589 9.85054 12.7284 10.2465C12.8759 9.93291 13.0378 9.62801 13.2099 9.32888C12.3467 9.30142 11.4849 9.22628 10.6202 9.26241Z" fill="#FBE39C"/>
<path fill-rule="evenodd" clip-rule="evenodd" d="M14.7195 1.41428C10.1488 2.71628 6.09582 5.75235 3.59288 9.79419C1.12898 13.7161 0.141399 18.5455 0.914982 23.1148C1.55554 27.1219 3.5307 30.8791 6.39947 33.7417C7.1022 33.0105 7.91193 32.379 8.8171 31.9181C9.36511 31.6132 9.9753 31.4528 10.545 31.1941C12.3828 30.3198 14.2972 29.58 16.2898 29.1421C16.9853 28.9427 17.7126 28.8054 18.3459 28.4412C19.0559 28.0236 19.8034 27.6176 20.3124 26.9499C21.1641 26.0078 21.4735 24.7477 22.0837 23.6624C22.5536 22.7781 22.6303 21.7636 22.8385 20.7998C21.4316 21.6538 20.0955 22.6755 19.0964 23.9962C18.5715 24.6422 17.9208 25.3011 17.0576 25.4254C16.0425 25.5453 14.932 25.4283 14.0818 24.8199C13.4297 24.2968 13.5656 23.3431 13.674 22.6133C14.089 20.6755 14.5879 18.742 14.7412 16.7608C14.7325 15.2955 15.0332 13.8447 15.5335 12.4719C15.1605 12.2204 14.7831 11.9748 14.3898 11.7537C13.5598 12.8042 12.2136 13.5123 10.8573 13.3505C9.76853 13.1294 8.6725 12.5586 8.1187 11.5572C7.36536 10.3737 7.40007 8.75952 8.18522 7.59914C8.69853 6.72632 9.64129 6.20899 10.5985 5.96333C11.4574 5.696 12.3568 6.01536 13.1231 6.40697C14.0992 6.90118 14.7831 7.90694 14.8959 8.99363L14.9074 9.0601C15.522 9.20171 16.1293 9.37512 16.7395 9.53697C17.166 8.563 17.5449 7.56446 17.8138 6.53413C18.103 5.50669 18.5628 4.47203 19.3928 3.7654C19.7543 3.46338 20.2632 3.23506 20.7332 3.40558C21.2566 3.56309 21.4822 4.14256 21.5255 4.63966C21.5689 5.43878 21.2465 6.19599 20.8864 6.89106C22.3136 6.05293 23.9866 5.88385 25.5959 5.66854C28.952 5.47779 32.4295 6.24657 35.2259 8.16127C32.9457 5.13387 29.685 2.87957 26.0991 1.67439C22.4452 0.448983 18.4254 0.353609 14.7195 1.41428ZM6.23608 16.0874C5.73144 16.0975 5.16463 15.9921 4.71494 16.2782C3.53071 16.8808 3.14608 18.5888 3.9428 19.6437C4.53709 20.5267 5.77337 20.8792 6.73782 20.4371C7.48682 20.1105 8.14329 19.3677 8.07099 18.5108C8.06231 18.0238 8.13461 17.4805 7.80493 17.0744C7.42465 16.5831 6.91278 16.0484 6.23608 16.0874ZM9.34487 25.3401C9.12075 24.5208 8.05364 24.0873 7.32632 24.5266C6.90989 24.7809 6.5484 25.226 6.57587 25.7375C6.49056 26.5612 7.30319 27.3127 8.11003 27.2361C8.97904 27.1653 9.7078 26.1725 9.34487 25.3401Z" fill="#C2CDFF"/>
</svg>
